<mxfile host="app.diagrams.net" modified="2023-05-07T09:51:24.761Z" agent="Mozilla/5.0 (Windows NT 10.0; Win64; x64) AppleWebKit/537.36 (KHTML, like Gecko) Chrome/111.0.0.0 Safari/537.36" etag="nFo_Bh4l08o0EO6T7M-h" version="21.2.9" type="device">
  <diagram name="Page-1" id="OZo9mISsHb_yNY84vh0P">
    <mxGraphModel dx="1889" dy="566" grid="1" gridSize="10" guides="1" tooltips="1" connect="1" arrows="1" fold="1" page="1" pageScale="1" pageWidth="827" pageHeight="1169" math="0" shadow="0">
      <root>
        <mxCell id="0" />
        <mxCell id="1" parent="0" />
        <mxCell id="cL1ThdfSY5dUKKuHLERo-3" style="edgeStyle=orthogonalEdgeStyle;rounded=0;orthogonalLoop=1;jettySize=auto;html=1;" edge="1" parent="1" source="cL1ThdfSY5dUKKuHLERo-1" target="cL1ThdfSY5dUKKuHLERo-4">
          <mxGeometry relative="1" as="geometry">
            <mxPoint x="370" y="160" as="targetPoint" />
          </mxGeometry>
        </mxCell>
        <mxCell id="cL1ThdfSY5dUKKuHLERo-1" value="Start" style="ellipse;whiteSpace=wrap;html=1;" vertex="1" parent="1">
          <mxGeometry x="310" y="20" width="120" height="80" as="geometry" />
        </mxCell>
        <mxCell id="cL1ThdfSY5dUKKuHLERo-6" value="" style="edgeStyle=orthogonalEdgeStyle;rounded=0;orthogonalLoop=1;jettySize=auto;html=1;" edge="1" parent="1" source="cL1ThdfSY5dUKKuHLERo-4" target="cL1ThdfSY5dUKKuHLERo-5">
          <mxGeometry relative="1" as="geometry" />
        </mxCell>
        <mxCell id="cL1ThdfSY5dUKKuHLERo-4" value="User to input name and age" style="shape=parallelogram;perimeter=parallelogramPerimeter;whiteSpace=wrap;html=1;fixedSize=1;" vertex="1" parent="1">
          <mxGeometry x="230" y="130" width="280" height="60" as="geometry" />
        </mxCell>
        <mxCell id="cL1ThdfSY5dUKKuHLERo-10" value="" style="edgeStyle=orthogonalEdgeStyle;rounded=0;orthogonalLoop=1;jettySize=auto;html=1;" edge="1" parent="1" source="cL1ThdfSY5dUKKuHLERo-5" target="cL1ThdfSY5dUKKuHLERo-9">
          <mxGeometry relative="1" as="geometry" />
        </mxCell>
        <mxCell id="cL1ThdfSY5dUKKuHLERo-67" value="" style="edgeStyle=orthogonalEdgeStyle;rounded=0;orthogonalLoop=1;jettySize=auto;html=1;" edge="1" parent="1" source="cL1ThdfSY5dUKKuHLERo-5" target="cL1ThdfSY5dUKKuHLERo-66">
          <mxGeometry relative="1" as="geometry" />
        </mxCell>
        <mxCell id="cL1ThdfSY5dUKKuHLERo-69" value="" style="edgeStyle=orthogonalEdgeStyle;rounded=0;orthogonalLoop=1;jettySize=auto;html=1;" edge="1" parent="1" source="cL1ThdfSY5dUKKuHLERo-5" target="cL1ThdfSY5dUKKuHLERo-68">
          <mxGeometry relative="1" as="geometry" />
        </mxCell>
        <mxCell id="cL1ThdfSY5dUKKuHLERo-5" value="Display menu&lt;br&gt;&lt;div&gt;1. Enter 1 to start the game&amp;nbsp; &amp;nbsp; &amp;nbsp;&amp;nbsp;&lt;/div&gt;&lt;div&gt;2. Enter 2 to view your results&amp;nbsp; &amp;nbsp;&lt;/div&gt;&lt;div&gt;3. Enter 3 for the daily challenge&lt;/div&gt;&lt;div&gt;4. Enter 4 to exit&amp;nbsp; &amp;nbsp;&amp;nbsp;&lt;/div&gt;&lt;div&gt;&lt;br&gt;&lt;/div&gt;" style="shape=parallelogram;perimeter=parallelogramPerimeter;whiteSpace=wrap;html=1;fixedSize=1;" vertex="1" parent="1">
          <mxGeometry x="250" y="240" width="240" height="90" as="geometry" />
        </mxCell>
        <mxCell id="cL1ThdfSY5dUKKuHLERo-12" value="" style="edgeStyle=orthogonalEdgeStyle;rounded=0;orthogonalLoop=1;jettySize=auto;html=1;" edge="1" parent="1" source="cL1ThdfSY5dUKKuHLERo-9" target="cL1ThdfSY5dUKKuHLERo-11">
          <mxGeometry relative="1" as="geometry" />
        </mxCell>
        <mxCell id="cL1ThdfSY5dUKKuHLERo-39" style="edgeStyle=orthogonalEdgeStyle;rounded=0;orthogonalLoop=1;jettySize=auto;html=1;entryX=0.006;entryY=0.66;entryDx=0;entryDy=0;entryPerimeter=0;" edge="1" parent="1" source="cL1ThdfSY5dUKKuHLERo-9" target="cL1ThdfSY5dUKKuHLERo-38">
          <mxGeometry relative="1" as="geometry" />
        </mxCell>
        <mxCell id="cL1ThdfSY5dUKKuHLERo-9" value="&quot;1&quot; Selected" style="whiteSpace=wrap;html=1;" vertex="1" parent="1">
          <mxGeometry x="293" y="370" width="120" height="60" as="geometry" />
        </mxCell>
        <mxCell id="cL1ThdfSY5dUKKuHLERo-16" value="" style="edgeStyle=orthogonalEdgeStyle;rounded=0;orthogonalLoop=1;jettySize=auto;html=1;" edge="1" parent="1" source="cL1ThdfSY5dUKKuHLERo-11" target="cL1ThdfSY5dUKKuHLERo-15">
          <mxGeometry relative="1" as="geometry" />
        </mxCell>
        <mxCell id="cL1ThdfSY5dUKKuHLERo-11" value="12 and over in age" style="whiteSpace=wrap;html=1;" vertex="1" parent="1">
          <mxGeometry x="10" y="370" width="120" height="60" as="geometry" />
        </mxCell>
        <mxCell id="cL1ThdfSY5dUKKuHLERo-18" value="" style="edgeStyle=orthogonalEdgeStyle;rounded=0;orthogonalLoop=1;jettySize=auto;html=1;" edge="1" parent="1" source="cL1ThdfSY5dUKKuHLERo-15" target="cL1ThdfSY5dUKKuHLERo-17">
          <mxGeometry relative="1" as="geometry">
            <Array as="points">
              <mxPoint x="350" y="490" />
            </Array>
          </mxGeometry>
        </mxCell>
        <mxCell id="cL1ThdfSY5dUKKuHLERo-20" value="incorrect" style="edgeLabel;html=1;align=center;verticalAlign=middle;resizable=0;points=[];" vertex="1" connectable="0" parent="cL1ThdfSY5dUKKuHLERo-18">
          <mxGeometry x="-0.1148" y="-1" relative="1" as="geometry">
            <mxPoint x="293" y="-11" as="offset" />
          </mxGeometry>
        </mxCell>
        <mxCell id="cL1ThdfSY5dUKKuHLERo-22" value="" style="edgeStyle=orthogonalEdgeStyle;rounded=0;orthogonalLoop=1;jettySize=auto;html=1;" edge="1" parent="1" source="cL1ThdfSY5dUKKuHLERo-15" target="cL1ThdfSY5dUKKuHLERo-21">
          <mxGeometry relative="1" as="geometry" />
        </mxCell>
        <mxCell id="cL1ThdfSY5dUKKuHLERo-23" value="correct" style="edgeLabel;html=1;align=center;verticalAlign=middle;resizable=0;points=[];" vertex="1" connectable="0" parent="cL1ThdfSY5dUKKuHLERo-22">
          <mxGeometry x="-0.2868" y="1" relative="1" as="geometry">
            <mxPoint as="offset" />
          </mxGeometry>
        </mxCell>
        <mxCell id="cL1ThdfSY5dUKKuHLERo-15" value="Ask user to select number 1 -15" style="shape=parallelogram;perimeter=parallelogramPerimeter;whiteSpace=wrap;html=1;fixedSize=1;" vertex="1" parent="1">
          <mxGeometry x="10" y="460" width="120" height="60" as="geometry" />
        </mxCell>
        <mxCell id="cL1ThdfSY5dUKKuHLERo-19" style="edgeStyle=orthogonalEdgeStyle;rounded=0;orthogonalLoop=1;jettySize=auto;html=1;entryX=0.5;entryY=0;entryDx=0;entryDy=0;" edge="1" parent="1" source="cL1ThdfSY5dUKKuHLERo-17" target="cL1ThdfSY5dUKKuHLERo-15">
          <mxGeometry relative="1" as="geometry">
            <Array as="points">
              <mxPoint x="390" y="440" />
              <mxPoint x="70" y="440" />
            </Array>
          </mxGeometry>
        </mxCell>
        <mxCell id="cL1ThdfSY5dUKKuHLERo-24" value="no" style="edgeLabel;html=1;align=center;verticalAlign=middle;resizable=0;points=[];" vertex="1" connectable="0" parent="cL1ThdfSY5dUKKuHLERo-19">
          <mxGeometry x="-0.1419" relative="1" as="geometry">
            <mxPoint x="-65" as="offset" />
          </mxGeometry>
        </mxCell>
        <mxCell id="cL1ThdfSY5dUKKuHLERo-52" style="edgeStyle=orthogonalEdgeStyle;rounded=0;orthogonalLoop=1;jettySize=auto;html=1;" edge="1" parent="1" source="cL1ThdfSY5dUKKuHLERo-17" target="cL1ThdfSY5dUKKuHLERo-26">
          <mxGeometry relative="1" as="geometry" />
        </mxCell>
        <mxCell id="cL1ThdfSY5dUKKuHLERo-53" value="yes" style="edgeLabel;html=1;align=center;verticalAlign=middle;resizable=0;points=[];" vertex="1" connectable="0" parent="cL1ThdfSY5dUKKuHLERo-52">
          <mxGeometry x="-0.3364" y="2" relative="1" as="geometry">
            <mxPoint as="offset" />
          </mxGeometry>
        </mxCell>
        <mxCell id="cL1ThdfSY5dUKKuHLERo-64" style="edgeStyle=orthogonalEdgeStyle;rounded=0;orthogonalLoop=1;jettySize=auto;html=1;" edge="1" parent="1" source="cL1ThdfSY5dUKKuHLERo-17">
          <mxGeometry relative="1" as="geometry">
            <mxPoint x="660" y="450" as="targetPoint" />
            <Array as="points">
              <mxPoint x="390" y="440" />
              <mxPoint x="661" y="440" />
              <mxPoint x="661" y="450" />
            </Array>
          </mxGeometry>
        </mxCell>
        <mxCell id="cL1ThdfSY5dUKKuHLERo-17" value="Third try" style="rhombus;whiteSpace=wrap;html=1;" vertex="1" parent="1">
          <mxGeometry x="350" y="530" width="80" height="80" as="geometry" />
        </mxCell>
        <mxCell id="cL1ThdfSY5dUKKuHLERo-32" value="" style="edgeStyle=orthogonalEdgeStyle;rounded=0;orthogonalLoop=1;jettySize=auto;html=1;" edge="1" parent="1" source="cL1ThdfSY5dUKKuHLERo-21" target="cL1ThdfSY5dUKKuHLERo-31">
          <mxGeometry relative="1" as="geometry" />
        </mxCell>
        <mxCell id="cL1ThdfSY5dUKKuHLERo-49" style="edgeStyle=orthogonalEdgeStyle;rounded=0;orthogonalLoop=1;jettySize=auto;html=1;entryX=0.5;entryY=1;entryDx=0;entryDy=0;" edge="1" parent="1" source="cL1ThdfSY5dUKKuHLERo-21" target="cL1ThdfSY5dUKKuHLERo-17">
          <mxGeometry relative="1" as="geometry">
            <Array as="points">
              <mxPoint x="245" y="615" />
              <mxPoint x="245" y="620" />
              <mxPoint x="360" y="620" />
              <mxPoint x="360" y="610" />
            </Array>
          </mxGeometry>
        </mxCell>
        <mxCell id="cL1ThdfSY5dUKKuHLERo-21" value="Ask user to select number 1 -30" style="shape=parallelogram;perimeter=parallelogramPerimeter;whiteSpace=wrap;html=1;fixedSize=1;" vertex="1" parent="1">
          <mxGeometry x="10" y="585" width="130" height="60" as="geometry" />
        </mxCell>
        <mxCell id="cL1ThdfSY5dUKKuHLERo-26" value="Stop" style="ellipse;whiteSpace=wrap;html=1;" vertex="1" parent="1">
          <mxGeometry x="310" y="840" width="120" height="80" as="geometry" />
        </mxCell>
        <mxCell id="cL1ThdfSY5dUKKuHLERo-33" style="edgeStyle=orthogonalEdgeStyle;rounded=0;orthogonalLoop=1;jettySize=auto;html=1;" edge="1" parent="1" source="cL1ThdfSY5dUKKuHLERo-31" target="cL1ThdfSY5dUKKuHLERo-17">
          <mxGeometry relative="1" as="geometry">
            <mxPoint x="230" y="620" as="targetPoint" />
            <Array as="points">
              <mxPoint x="330" y="755" />
              <mxPoint x="330" y="620" />
              <mxPoint x="350" y="620" />
            </Array>
          </mxGeometry>
        </mxCell>
        <mxCell id="cL1ThdfSY5dUKKuHLERo-31" value="Ask user to select number 1 -50" style="shape=parallelogram;perimeter=parallelogramPerimeter;whiteSpace=wrap;html=1;fixedSize=1;" vertex="1" parent="1">
          <mxGeometry x="10" y="725" width="130" height="60" as="geometry" />
        </mxCell>
        <mxCell id="cL1ThdfSY5dUKKuHLERo-36" value="" style="edgeStyle=orthogonalEdgeStyle;rounded=0;orthogonalLoop=1;jettySize=auto;html=1;entryX=0;entryY=0.5;entryDx=0;entryDy=0;" edge="1" parent="1" target="cL1ThdfSY5dUKKuHLERo-26">
          <mxGeometry relative="1" as="geometry">
            <mxPoint x="70" y="785" as="sourcePoint" />
            <mxPoint x="75" y="850" as="targetPoint" />
            <Array as="points">
              <mxPoint x="76" y="785" />
              <mxPoint x="76" y="850" />
              <mxPoint x="310" y="850" />
            </Array>
          </mxGeometry>
        </mxCell>
        <mxCell id="cL1ThdfSY5dUKKuHLERo-37" value="correct" style="edgeLabel;html=1;align=center;verticalAlign=middle;resizable=0;points=[];" vertex="1" connectable="0" parent="cL1ThdfSY5dUKKuHLERo-36">
          <mxGeometry x="-0.2868" y="1" relative="1" as="geometry">
            <mxPoint as="offset" />
          </mxGeometry>
        </mxCell>
        <mxCell id="cL1ThdfSY5dUKKuHLERo-44" style="edgeStyle=orthogonalEdgeStyle;rounded=0;orthogonalLoop=1;jettySize=auto;html=1;exitX=0.5;exitY=1;exitDx=0;exitDy=0;" edge="1" parent="1" source="cL1ThdfSY5dUKKuHLERo-38" target="cL1ThdfSY5dUKKuHLERo-40">
          <mxGeometry relative="1" as="geometry" />
        </mxCell>
        <mxCell id="cL1ThdfSY5dUKKuHLERo-38" value="12 and over in age" style="whiteSpace=wrap;html=1;" vertex="1" parent="1">
          <mxGeometry x="600" y="370" width="120" height="60" as="geometry" />
        </mxCell>
        <mxCell id="cL1ThdfSY5dUKKuHLERo-45" style="edgeStyle=orthogonalEdgeStyle;rounded=0;orthogonalLoop=1;jettySize=auto;html=1;entryX=0.589;entryY=0.037;entryDx=0;entryDy=0;entryPerimeter=0;" edge="1" parent="1" source="cL1ThdfSY5dUKKuHLERo-40" target="cL1ThdfSY5dUKKuHLERo-42">
          <mxGeometry relative="1" as="geometry" />
        </mxCell>
        <mxCell id="cL1ThdfSY5dUKKuHLERo-54" style="edgeStyle=orthogonalEdgeStyle;rounded=0;orthogonalLoop=1;jettySize=auto;html=1;entryX=1;entryY=0.5;entryDx=0;entryDy=0;" edge="1" parent="1" source="cL1ThdfSY5dUKKuHLERo-40" target="cL1ThdfSY5dUKKuHLERo-17">
          <mxGeometry relative="1" as="geometry" />
        </mxCell>
        <mxCell id="cL1ThdfSY5dUKKuHLERo-40" value="Ask user to select number 1 -15" style="shape=parallelogram;perimeter=parallelogramPerimeter;whiteSpace=wrap;html=1;fixedSize=1;" vertex="1" parent="1">
          <mxGeometry x="600" y="460" width="120" height="60" as="geometry" />
        </mxCell>
        <mxCell id="cL1ThdfSY5dUKKuHLERo-47" style="edgeStyle=orthogonalEdgeStyle;rounded=0;orthogonalLoop=1;jettySize=auto;html=1;entryX=0.5;entryY=0;entryDx=0;entryDy=0;" edge="1" parent="1" source="cL1ThdfSY5dUKKuHLERo-42" target="cL1ThdfSY5dUKKuHLERo-43">
          <mxGeometry relative="1" as="geometry" />
        </mxCell>
        <mxCell id="cL1ThdfSY5dUKKuHLERo-55" style="edgeStyle=orthogonalEdgeStyle;rounded=0;orthogonalLoop=1;jettySize=auto;html=1;" edge="1" parent="1" source="cL1ThdfSY5dUKKuHLERo-42" target="cL1ThdfSY5dUKKuHLERo-17">
          <mxGeometry relative="1" as="geometry" />
        </mxCell>
        <mxCell id="cL1ThdfSY5dUKKuHLERo-42" value="Ask user to select number 1 -15" style="shape=parallelogram;perimeter=parallelogramPerimeter;whiteSpace=wrap;html=1;fixedSize=1;" vertex="1" parent="1">
          <mxGeometry x="590" y="585" width="120" height="60" as="geometry" />
        </mxCell>
        <mxCell id="cL1ThdfSY5dUKKuHLERo-48" style="edgeStyle=orthogonalEdgeStyle;rounded=0;orthogonalLoop=1;jettySize=auto;html=1;entryX=1;entryY=0.5;entryDx=0;entryDy=0;" edge="1" parent="1" source="cL1ThdfSY5dUKKuHLERo-43" target="cL1ThdfSY5dUKKuHLERo-26">
          <mxGeometry relative="1" as="geometry">
            <Array as="points">
              <mxPoint x="650" y="880" />
            </Array>
          </mxGeometry>
        </mxCell>
        <mxCell id="cL1ThdfSY5dUKKuHLERo-56" style="edgeStyle=orthogonalEdgeStyle;rounded=0;orthogonalLoop=1;jettySize=auto;html=1;" edge="1" parent="1" source="cL1ThdfSY5dUKKuHLERo-43">
          <mxGeometry relative="1" as="geometry">
            <mxPoint x="430" y="570" as="targetPoint" />
          </mxGeometry>
        </mxCell>
        <mxCell id="cL1ThdfSY5dUKKuHLERo-43" value="Ask user to select number 1 -50" style="shape=parallelogram;perimeter=parallelogramPerimeter;whiteSpace=wrap;html=1;fixedSize=1;" vertex="1" parent="1">
          <mxGeometry x="585" y="725" width="130" height="60" as="geometry" />
        </mxCell>
        <mxCell id="cL1ThdfSY5dUKKuHLERo-50" value="incorrect" style="edgeLabel;html=1;align=center;verticalAlign=middle;resizable=0;points=[];" vertex="1" connectable="0" parent="1">
          <mxGeometry x="710.0028571428571" y="785" as="geometry">
            <mxPoint x="-499" y="-178" as="offset" />
          </mxGeometry>
        </mxCell>
        <mxCell id="cL1ThdfSY5dUKKuHLERo-51" value="incorrect" style="edgeLabel;html=1;align=center;verticalAlign=middle;resizable=0;points=[];" vertex="1" connectable="0" parent="1">
          <mxGeometry x="490.1428571428571" y="790" as="geometry">
            <mxPoint x="-290" y="-294" as="offset" />
          </mxGeometry>
        </mxCell>
        <mxCell id="cL1ThdfSY5dUKKuHLERo-57" value="incorrect" style="edgeLabel;html=1;align=center;verticalAlign=middle;resizable=0;points=[];" vertex="1" connectable="0" parent="1">
          <mxGeometry x="230.03703703703695" y="749.9999999999998" as="geometry" />
        </mxCell>
        <mxCell id="cL1ThdfSY5dUKKuHLERo-58" value="incorrect" style="edgeLabel;html=1;align=center;verticalAlign=middle;resizable=0;points=[];" vertex="1" connectable="0" parent="1">
          <mxGeometry x="529.997037037037" y="619.9999999999998" as="geometry" />
        </mxCell>
        <mxCell id="cL1ThdfSY5dUKKuHLERo-59" value="incorrect" style="edgeLabel;html=1;align=center;verticalAlign=middle;resizable=0;points=[];" vertex="1" connectable="0" parent="1">
          <mxGeometry x="250.03703703703695" y="769.9999999999998" as="geometry">
            <mxPoint x="260" y="-10" as="offset" />
          </mxGeometry>
        </mxCell>
        <mxCell id="cL1ThdfSY5dUKKuHLERo-60" value="correct" style="edgeLabel;html=1;align=center;verticalAlign=middle;resizable=0;points=[];" vertex="1" connectable="0" parent="1">
          <mxGeometry x="81" y="555.1851851851852" as="geometry">
            <mxPoint x="-7" y="133" as="offset" />
          </mxGeometry>
        </mxCell>
        <mxCell id="cL1ThdfSY5dUKKuHLERo-61" value="correct" style="edgeLabel;html=1;align=center;verticalAlign=middle;resizable=0;points=[];" vertex="1" connectable="0" parent="1">
          <mxGeometry x="660" y="549.9951851851852" as="geometry" />
        </mxCell>
        <mxCell id="cL1ThdfSY5dUKKuHLERo-62" value="correct" style="edgeLabel;html=1;align=center;verticalAlign=middle;resizable=0;points=[];" vertex="1" connectable="0" parent="1">
          <mxGeometry x="650" y="679.9951851851852" as="geometry" />
        </mxCell>
        <mxCell id="cL1ThdfSY5dUKKuHLERo-63" value="correct" style="edgeLabel;html=1;align=center;verticalAlign=middle;resizable=0;points=[];" vertex="1" connectable="0" parent="1">
          <mxGeometry x="111" y="585.1851851851852" as="geometry">
            <mxPoint x="1079" y="351" as="offset" />
          </mxGeometry>
        </mxCell>
        <mxCell id="cL1ThdfSY5dUKKuHLERo-65" value="no" style="edgeLabel;html=1;align=center;verticalAlign=middle;resizable=0;points=[];" vertex="1" connectable="0" parent="1">
          <mxGeometry x="240.55555555555566" y="449.9999999999999" as="geometry">
            <mxPoint x="280" y="-10" as="offset" />
          </mxGeometry>
        </mxCell>
        <mxCell id="cL1ThdfSY5dUKKuHLERo-75" value="" style="edgeStyle=orthogonalEdgeStyle;rounded=0;orthogonalLoop=1;jettySize=auto;html=1;" edge="1" parent="1" source="cL1ThdfSY5dUKKuHLERo-66" target="cL1ThdfSY5dUKKuHLERo-74">
          <mxGeometry relative="1" as="geometry" />
        </mxCell>
        <mxCell id="cL1ThdfSY5dUKKuHLERo-66" value="&quot;3&quot; selected" style="whiteSpace=wrap;html=1;" vertex="1" parent="1">
          <mxGeometry x="630" y="255" width="120" height="60" as="geometry" />
        </mxCell>
        <mxCell id="cL1ThdfSY5dUKKuHLERo-71" value="" style="edgeStyle=orthogonalEdgeStyle;rounded=0;orthogonalLoop=1;jettySize=auto;html=1;" edge="1" parent="1" source="cL1ThdfSY5dUKKuHLERo-68" target="cL1ThdfSY5dUKKuHLERo-70">
          <mxGeometry relative="1" as="geometry" />
        </mxCell>
        <mxCell id="cL1ThdfSY5dUKKuHLERo-68" value="&quot;2&quot; Selected" style="whiteSpace=wrap;html=1;" vertex="1" parent="1">
          <mxGeometry x="100" y="255" width="120" height="60" as="geometry" />
        </mxCell>
        <mxCell id="cL1ThdfSY5dUKKuHLERo-72" style="edgeStyle=orthogonalEdgeStyle;rounded=0;orthogonalLoop=1;jettySize=auto;html=1;entryX=0;entryY=0.5;entryDx=0;entryDy=0;" edge="1" parent="1" source="cL1ThdfSY5dUKKuHLERo-70" target="cL1ThdfSY5dUKKuHLERo-26">
          <mxGeometry relative="1" as="geometry">
            <Array as="points">
              <mxPoint x="-20" y="880" />
            </Array>
          </mxGeometry>
        </mxCell>
        <mxCell id="cL1ThdfSY5dUKKuHLERo-70" value="Display Results" style="whiteSpace=wrap;html=1;" vertex="1" parent="1">
          <mxGeometry x="-100" y="255" width="120" height="60" as="geometry" />
        </mxCell>
        <mxCell id="cL1ThdfSY5dUKKuHLERo-77" value="" style="edgeStyle=orthogonalEdgeStyle;rounded=0;orthogonalLoop=1;jettySize=auto;html=1;" edge="1" parent="1" source="cL1ThdfSY5dUKKuHLERo-74" target="cL1ThdfSY5dUKKuHLERo-76">
          <mxGeometry relative="1" as="geometry" />
        </mxCell>
        <mxCell id="cL1ThdfSY5dUKKuHLERo-74" value="Display List of numbers" style="whiteSpace=wrap;html=1;" vertex="1" parent="1">
          <mxGeometry x="790" y="330" width="120" height="60" as="geometry" />
        </mxCell>
        <mxCell id="cL1ThdfSY5dUKKuHLERo-82" style="edgeStyle=orthogonalEdgeStyle;rounded=0;orthogonalLoop=1;jettySize=auto;html=1;entryX=0.5;entryY=0;entryDx=0;entryDy=0;" edge="1" parent="1" source="cL1ThdfSY5dUKKuHLERo-76" target="cL1ThdfSY5dUKKuHLERo-81">
          <mxGeometry relative="1" as="geometry" />
        </mxCell>
        <mxCell id="cL1ThdfSY5dUKKuHLERo-76" value="User to select&amp;nbsp; a number" style="shape=parallelogram;perimeter=parallelogramPerimeter;whiteSpace=wrap;html=1;fixedSize=1;" vertex="1" parent="1">
          <mxGeometry x="760" y="430" width="170" height="60" as="geometry" />
        </mxCell>
        <mxCell id="cL1ThdfSY5dUKKuHLERo-83" style="edgeStyle=orthogonalEdgeStyle;rounded=0;orthogonalLoop=1;jettySize=auto;html=1;entryX=1.021;entryY=0.582;entryDx=0;entryDy=0;entryPerimeter=0;" edge="1" parent="1" source="cL1ThdfSY5dUKKuHLERo-81" target="cL1ThdfSY5dUKKuHLERo-26">
          <mxGeometry relative="1" as="geometry">
            <Array as="points">
              <mxPoint x="845" y="870" />
              <mxPoint x="432" y="870" />
            </Array>
          </mxGeometry>
        </mxCell>
        <mxCell id="cL1ThdfSY5dUKKuHLERo-84" value="no" style="edgeLabel;html=1;align=center;verticalAlign=middle;resizable=0;points=[];" vertex="1" connectable="0" parent="cL1ThdfSY5dUKKuHLERo-83">
          <mxGeometry x="-0.5966" y="1" relative="1" as="geometry">
            <mxPoint as="offset" />
          </mxGeometry>
        </mxCell>
        <mxCell id="cL1ThdfSY5dUKKuHLERo-85" style="edgeStyle=orthogonalEdgeStyle;rounded=0;orthogonalLoop=1;jettySize=auto;html=1;" edge="1" parent="1" source="cL1ThdfSY5dUKKuHLERo-81">
          <mxGeometry relative="1" as="geometry">
            <mxPoint x="930" y="880" as="targetPoint" />
          </mxGeometry>
        </mxCell>
        <mxCell id="cL1ThdfSY5dUKKuHLERo-87" value="yes" style="edgeLabel;html=1;align=center;verticalAlign=middle;resizable=0;points=[];" vertex="1" connectable="0" parent="cL1ThdfSY5dUKKuHLERo-85">
          <mxGeometry x="0.0502" y="2" relative="1" as="geometry">
            <mxPoint as="offset" />
          </mxGeometry>
        </mxCell>
        <mxCell id="cL1ThdfSY5dUKKuHLERo-81" value="Does user number match random?" style="rhombus;whiteSpace=wrap;html=1;" vertex="1" parent="1">
          <mxGeometry x="797.5" y="520" width="95" height="100" as="geometry" />
        </mxCell>
        <mxCell id="cL1ThdfSY5dUKKuHLERo-88" style="edgeStyle=orthogonalEdgeStyle;rounded=0;orthogonalLoop=1;jettySize=auto;html=1;entryX=0.5;entryY=1;entryDx=0;entryDy=0;" edge="1" parent="1" source="cL1ThdfSY5dUKKuHLERo-86" target="cL1ThdfSY5dUKKuHLERo-26">
          <mxGeometry relative="1" as="geometry" />
        </mxCell>
        <mxCell id="cL1ThdfSY5dUKKuHLERo-86" value="You Win" style="rounded=0;whiteSpace=wrap;html=1;" vertex="1" parent="1">
          <mxGeometry x="850" y="880" width="120" height="60" as="geometry" />
        </mxCell>
        <mxCell id="cL1ThdfSY5dUKKuHLERo-89" value="You Win" style="rounded=0;whiteSpace=wrap;html=1;" vertex="1" parent="1">
          <mxGeometry x="590" y="800" width="120" height="60" as="geometry" />
        </mxCell>
        <mxCell id="cL1ThdfSY5dUKKuHLERo-90" value="You Win" style="rounded=0;whiteSpace=wrap;html=1;" vertex="1" parent="1">
          <mxGeometry x="170.03999999999996" y="810" width="120" height="60" as="geometry" />
        </mxCell>
      </root>
    </mxGraphModel>
  </diagram>
</mxfile>
